<svg width="22" height="23" viewBox="0 0 22 23" fill="none" xmlns="http://www.w3.org/2000/svg">
<path d="M14.33 22H7.66V12C7.66 10.9 8.56 10 9.66 10H12.33C13.44 10 14.33 10.9 14.33 12V22ZM14.33 22V17H19C20.1 17 21 17.9 21 19V22H14.33ZM7.67 14H3C1.9 14 1 14.9 1 16V22H7.67V14ZM11.52 2.07001L12.05 3.13C12.12 3.28 12.31 3.42 12.47 3.44L13.43 3.60001C14.04 3.70001 14.19 4.14999 13.75 4.57999L13 5.32999C12.87 5.45999 12.8 5.69999 12.84 5.86999L13.05 6.79001C13.22 7.52001 12.83 7.80001 12.19 7.42001L11.29 6.89001C11.13 6.79001 10.86 6.79001 10.7 6.89001L9.8 7.42001C9.16 7.80001 8.77 7.52001 8.94 6.79001L9.15 5.86999C9.19 5.69999 9.12 5.44999 8.99 5.32999L8.25 4.59C7.81 4.15 7.95 3.70998 8.57 3.60998L9.53 3.45001C9.69 3.42001 9.88 3.28001 9.95 3.14001L10.48 2.07999C10.77 1.49999 11.23 1.50001 11.52 2.07001Z" stroke="#292D32" stroke-width="1.5" stroke-linecap="round" stroke-linejoin="round"/>
</svg>
